#usda 1.0
(
    customLayerData = {
        dictionary cameraSettings = {
            dictionary Front = {
                double3 position = (5, 0, 0)
                double radius = 5
            }
            dictionary Perspective = {
                double3 position = (0.5990012010894257, -1.1277753752768578, 0.639275157326304)
                double3 target = (0.4868988739368959, 0.6597914595828032, -0.5579468550065398)
            }
            dictionary Right = {
                double3 position = (0, -5, 0)
                double radius = 5
            }
            dictionary Top = {
                double3 position = (0, 0, 5)
                double radius = 5
            }
            string boundCamera = "/OmniverseKit_Persp"
        }
        dictionary omni_layer = {
            string authoring_layer = "./kanake_1024.usda"
            dictionary locked = {
            }
            dictionary muteness = {
            }
        }
        dictionary renderSettings = {
            float3 "rtx:debugView:pixelDebug:textColor" = (0, 1e18, 0)
            float3 "rtx:fog:fogColor" = (0.75, 0.75, 0.75)
            float3 "rtx:index:backgroundColor" = (0, 0, 0)
            float3 "rtx:index:regionOfInterestMax" = (0, 0, 0)
            float3 "rtx:index:regionOfInterestMin" = (0, 0, 0)
            float3 "rtx:post:backgroundZeroAlpha:backgroundDefaultColor" = (0, 0, 0)
            float3 "rtx:post:colorcorr:contrast" = (1, 1, 1)
            float3 "rtx:post:colorcorr:gain" = (1, 1, 1)
            float3 "rtx:post:colorcorr:gamma" = (1, 1, 1)
            float3 "rtx:post:colorcorr:offset" = (0, 0, 0)
            float3 "rtx:post:colorcorr:saturation" = (1, 1, 1)
            float3 "rtx:post:colorgrad:blackpoint" = (0, 0, 0)
            float3 "rtx:post:colorgrad:contrast" = (1, 1, 1)
            float3 "rtx:post:colorgrad:gain" = (1, 1, 1)
            float3 "rtx:post:colorgrad:gamma" = (1, 1, 1)
            float3 "rtx:post:colorgrad:lift" = (0, 0, 0)
            float3 "rtx:post:colorgrad:multiply" = (1, 1, 1)
            float3 "rtx:post:colorgrad:offset" = (0, 0, 0)
            float3 "rtx:post:colorgrad:whitepoint" = (1, 1, 1)
            float3 "rtx:post:lensDistortion:lensFocalLengthArray" = (10, 30, 50)
            float3 "rtx:post:lensFlares:anisoFlareFalloffX" = (450, 475, 500)
            float3 "rtx:post:lensFlares:anisoFlareFalloffY" = (10, 10, 10)
            float3 "rtx:post:lensFlares:cutoffPoint" = (2, 2, 2)
            float3 "rtx:post:lensFlares:haloFlareFalloff" = (10, 10, 10)
            float3 "rtx:post:lensFlares:haloFlareRadius" = (75, 75, 75)
            float3 "rtx:post:lensFlares:isotropicFlareFalloff" = (50, 50, 50)
            float3 "rtx:post:tonemap:whitepoint" = (1, 1, 1)
            float3 "rtx:raytracing:indexdirect:svoBrickSize" = (32, 32, 32)
            float3 "rtx:raytracing:inscattering:singleScatteringAlbedo" = (0.9, 0.9, 0.9)
            float3 "rtx:raytracing:inscattering:transmittanceColor" = (0.5, 0.5, 0.5)
            float3 "rtx:sceneDb:ambientLightColor" = (0.1, 0.1, 0.1)
        }
    }
    endTimeCode = 1000000
    metersPerUnit = 1
    startTimeCode = 0
    timeCodesPerSecond = 60
    upAxis = "Z"
)

def Xform "Environment"
{
    quatd xformOp:orient = (1, 0, 0, 0)
    double3 xformOp:scale = (1, 1, 1)
    double3 xformOp:translate = (0, 0, 0)
    uniform token[] xformOpOrder = ["xformOp:translate", "xformOp:orient", "xformOp:scale"]

    def DistantLight "defaultLight" (
        prepend apiSchemas = ["ShapingAPI"]
    )
    {
        float inputs:angle = 1
        float inputs:intensity = 3000
        float inputs:shaping:cone:angle = 180
        float inputs:shaping:cone:softness
        float inputs:shaping:focus
        color3f inputs:shaping:focusTint
        asset inputs:shaping:ies:file
        quatd xformOp:orient = (0.6532814824381883, 0.2705980500730985, 0.27059805007309845, 0.6532814824381882)
        double3 xformOp:scale = (1, 1, 1)
        double3 xformOp:translate = (0, 0, 0)
        uniform token[] xformOpOrder = ["xformOp:translate", "xformOp:orient", "xformOp:scale"]
    }
}

def PhysicsScene "physicsScene"
{
}

def Xform "GroundPlane"
{
    quatf xformOp:orient = (1, 0, 0, 0)
    float3 xformOp:scale = (1, 1, 1)
    double3 xformOp:translate = (0, 0, 0)
    uniform token[] xformOpOrder = ["xformOp:translate", "xformOp:orient", "xformOp:scale"]

    def Mesh "CollisionMesh"
    {
        uniform bool doubleSided = 0
        int[] faceVertexCounts = [4]
        int[] faceVertexIndices = [0, 1, 2, 3]
        normal3f[] normals = [(0, 0, 1), (0, 0, 1), (0, 0, 1), (0, 0, 1)]
        point3f[] points = [(-25, -25, 0), (25, -25, 0), (25, 25, 0), (-25, 25, 0)]
        color3f[] primvars:displayColor = [(0.5, 0.5, 0.5)]
        texCoord2f[] primvars:st = [(0, 0), (1, 0), (1, 1), (0, 1)] (
            interpolation = "varying"
        )
    }

    def Plane "CollisionPlane" (
        prepend apiSchemas = ["PhysicsCollisionAPI"]
    )
    {
        uniform token axis = "Z"
        uniform token purpose = "guide"
    }
}

over "kanake6_sim" (
    delete apiSchemas = ["PhysicsArticulationRootAPI", "PhysxArticulationAPI"]
    prepend references = @./kanake6_nocover/kanake6_nocover.usd@
)
{
    quatd xformOp:orient = (1, 0, 0, 0)
    double3 xformOp:scale = (1, 1, 1)
    double3 xformOp:translate = (0, 0, 0.05)
    uniform token[] xformOpOrder = ["xformOp:translate", "xformOp:orient", "xformOp:scale"]

    over "tail" (
        delete apiSchemas = ["PhysicsArticulationRootAPI", "PhysxArticulationAPI"]
    )
    {
        vector3f physics:angularVelocity = (-0.0018777581, 0.014780344, -0.0019595134)
        vector3f physics:velocity = (0.0000031433874, 0.0000016957708, 0.000004510585)
        quatd xformOp:orient = (0.9999999998827478, 0.000014978011998804678, 0.0000011482081909796217, 0.0000029740864792195795)
        double3 xformOp:translate = (5.885958671569824e-7, -0.0000014028173609403893, -0.02905380847420952)

        over "j16" (
            delete apiSchemas = ["PhysicsDriveAPI:angular"]
        )
        {
            float physics:lowerLimit = -inf
            float physics:upperLimit = inf
            float state:angular:physics:position = -0.000074176234
            float state:angular:physics:velocity = 0.0025404105
        }
    }

    over "Link15"
    {
        vector3f physics:angularVelocity = (-0.001877755, 0.014780309, -0.00077193504)
        vector3f physics:velocity = (0.0000031433678, 3.199412e-7, -0.000010246843)
        quatd xformOp:orient = (0.9999999998827631, 0.00001498125164326576, 0.0000010907652064789222, 0.0000029742401016145876)
        double3 xformOp:translate = (0.07155055552721024, -9.772548992259544e-7, -0.02905397238698265)

        over "j15" (
            delete apiSchemas = ["PhysicsDriveAPI:angular"]
        )
        {
            float physics:lowerLimit = -inf
            float physics:upperLimit = inf
            float state:angular:physics:position = 4.7358907e-7
            float state:angular:physics:velocity = 0.07089844
        }
    }

    over "Link14"
    {
        vector3f physics:angularVelocity = (-0.0018776569, -0.0018561454, -0.0007723742)
        vector3f physics:velocity = (0.0000031433588, -2.5421772e-7, -0.000013101992)
        quatd xformOp:orient = (0.7071161510867092, -0.7070974111553817, -0.0000016680278349660268, 0.00000262542425843885)
        double3 xformOp:translate = (0.1141505315899849, -7.238467105707969e-7, -0.029054065519240113)

        over "j14" (
            delete apiSchemas = ["PhysicsDriveAPI:angular"]
        )
        {
            float physics:lowerLimit = -inf
            float physics:upperLimit = inf
            float state:angular:physics:position = -0.00015679465
            float state:angular:physics:velocity = -0.0015983272
        }
    }

    over "Link13"
    {
        vector3f physics:angularVelocity = (-0.0018776542, -0.0018562048, 0.0012155323)
        vector3f physics:velocity = (0.0000031433603, 1.4347297e-7, -0.000011721904)
        quatd xformOp:orient = (0.9999999998874894, 0.000014981248121257042, 6.372401698730532e-7, 4.210018249667303e-7)
        double3 xformOp:translate = (0.15675053000450134, -4.6519863872163114e-7, -0.02905412326123974)

        over "j13" (
            delete apiSchemas = ["PhysicsDriveAPI:angular"]
        )
        {
            float physics:lowerLimit = -inf
            float physics:upperLimit = inf
            float state:angular:physics:position = -0.000054006625
            float state:angular:physics:velocity = -0.17589027
        }
    }

    over "Link12"
    {
        vector3f physics:angularVelocity = (-0.0018776519, -0.0046504918, 0.0012154585)
        vector3f physics:velocity = (0.0000031433624, 0.0000010471949, -0.000008975573)
        quatd xformOp:orient = (0.7071161510931333, -0.7070974111553816, 8.14907252788176e-8, 7.640323929077758e-7)
        double3 xformOp:translate = (0.1993504911661148, -4.2932731503242394e-7, -0.029054175415303918)

        over "j12" (
            delete apiSchemas = ["PhysicsDriveAPI:angular"]
        )
        {
            float physics:lowerLimit = -inf
            float physics:upperLimit = inf
            float state:angular:physics:position = 0.00004102589
            float state:angular:physics:velocity = 0.0034502218
        }
    }

    over "Link11"
    {
        vector3f physics:angularVelocity = (-0.0018776534, -0.004650454, -0.000056392215)
        vector3f physics:velocity = (0.0000031433651, 0.0000013290453, -0.000005517905)
        quatd xformOp:orient = (0.9999999998872628, 0.000014980524941342613, 5.58186856334273e-7, 8.640635365650264e-7)
        double3 xformOp:translate = (0.24195049703121185, -3.8822000192340056e-7, -0.029054227569368096)

        over "j11" (
            delete apiSchemas = ["PhysicsDriveAPI:angular"]
        )
        {
            float physics:lowerLimit = -inf
            float physics:upperLimit = inf
            float state:angular:physics:position = 0.000061900115
            float state:angular:physics:velocity = 0.11490838
        }
    }

    over "Link10"
    {
        vector3f physics:angularVelocity = (-0.0018777268, 0.03904732, -0.00005523876)
        vector3f physics:velocity = (0.0000031432942, 0.0000012876762, -0.000023425671)
        quatd xformOp:orient = (0.7071161510900685, -0.7070974111553817, 7.716444088142611e-7, 0.000002080669673886376)
        double3 xformOp:translate = (0.2845504581928253, -3.1459737215300265e-7, -0.029054275998141976)

        over "j10" (
            delete apiSchemas = ["PhysicsDriveAPI:angular"]
        )
        {
            float physics:lowerLimit = -inf
            float physics:upperLimit = inf
            float state:angular:physics:position = -0.00046175986
            float state:angular:physics:velocity = -0.0030688941
        }
    }

    over "Link9"
    {
        vector3f physics:angularVelocity = (-0.0018777294, 0.039047338, -0.0007357366)
        vector3f physics:velocity = (0.0000031431887, 9.1388057e-7, -0.00005245774)
        quatd xformOp:orient = (0.9999999998840899, 0.000014954985091679193, 0.000001977327575599553, -0.0000020636654791528844)
        double3 xformOp:translate = (0.3271504342556, -2.357478479098063e-7, -0.029054447361495706)

        over "j9" (
            delete apiSchemas = ["PhysicsDriveAPI:angular"]
        )
        {
            float physics:lowerLimit = -inf
            float physics:upperLimit = inf
            float state:angular:physics:position = -0.00009318603
            float state:angular:physics:velocity = -0.025716715
        }
    }

    over "Link8"
    {
        vector3f physics:angularVelocity = (-0.0018781357, -0.058240596, -0.0007382998)
        vector3f physics:velocity = (0.0000031430684, 3.6559902e-7, -0.000033922202)
        quatd xformOp:orient = (0.7071161510907145, -0.707097411154592, 6.673508323718573e-7, -0.000002163917997673951)
        double3 xformOp:translate = (0.369750440120697, -4.115642013857723e-7, -0.029054616862204286)

        over "j8" (
            delete apiSchemas = ["PhysicsDriveAPI:angular"]
        )
        {
            float physics:lowerLimit = -inf
            float physics:upperLimit = inf
            float state:angular:physics:position = 0.0008403772
            float state:angular:physics:velocity = 0.0016026238
        }
    }

    over "Link7"
    {
        vector3f physics:angularVelocity = (-0.001878145, -0.058240738, 0.0040146015)
        vector3f physics:velocity = (0.0000031429395, 0.0000021405365, 0.000009380319)
        quatd xformOp:orient = (0.9999999998794254, 0.00001491533176592604, -0.0000010944671265613375, 0.000004181401761953999)
        double3 xformOp:translate = (0.4123504161834717, -5.821439117426053e-7, -0.029054527455237122)

        over "j7" (
            delete apiSchemas = ["PhysicsDriveAPI:angular"]
        )
        {
            float physics:lowerLimit = -inf
            float physics:upperLimit = inf
            float state:angular:physics:position = 0.00031972222
            float state:angular:physics:velocity = 0.031754192
        }
    }

    over "Link6"
    {
        vector3f physics:angularVelocity = (-0.0018791133, 0.05935537, 0.0040176543)
        vector3f physics:velocity = (0.0000031427123, 0.0000051269194, -0.000004814173)
        quatd xformOp:orient = (0.7071161510744369, -0.7070974111538023, -6.113259587420508e-7, 0.000005375045020613591)
        double3 xformOp:translate = (0.45495039224624634, -2.2587965986531344e-7, -0.02905443432297966)

        over "j6" (
            delete apiSchemas = ["PhysicsDriveAPI:angular"]
        )
        {
            float physics:lowerLimit = -inf
            float physics:upperLimit = inf
            float state:angular:physics:position = -0.0003395213
            float state:angular:physics:velocity = -0.0014566348
        }
    }

    over "Link5"
    {
        vector3f physics:angularVelocity = (-0.0018791854, 0.059355684, -0.006429943)
        vector3f physics:velocity = (0.00000314244, 0.0000030058661, -0.000048945665)
        quatd xformOp:orient = (0.9999999998823987, 0.000014860982219162453, 0.0000033324480145321298, 0.0000018023656182991965)
        double3 xformOp:translate = (0.49755042791366577, 1.3477287552632333e-7, -0.029054721170332642)

        over "j5" (
            delete apiSchemas = ["PhysicsDriveAPI:angular"]
        )
        {
            float physics:lowerLimit = -inf
            float physics:upperLimit = inf
            float state:angular:physics:position = -0.0003304666
            float state:angular:physics:velocity = -0.032548364
        }
    }

    over "Link4"
    {
        vector3f physics:angularVelocity = (-0.0018788469, -0.03802827, -0.0064324713)
        vector3f physics:velocity = (0.0000031423035, -0.0000017760983, -0.000045462624)
        quatd xformOp:orient = (0.7071160318844917, -0.7070975303646753, -0.0000018898572307071613, 7.321823431990575e-7)
        double3 xformOp:translate = (0.5401503443717957, 2.883357410610188e-7, -0.029055004292395326)

        over "j4" (
            delete apiSchemas = ["PhysicsDriveAPI:angular"]
        )
        {
            float physics:lowerLimit = -inf
            float physics:upperLimit = inf
            float state:angular:physics:position = -0.00045603744
            float state:angular:physics:velocity = 0.0012873193
        }
    }

    over "Link3"
    {
        vector3f physics:angularVelocity = (-0.0018788627, -0.038028587, 0.0042308215)
        vector3f physics:velocity = (0.0000031422558, -0.0000013450275, -0.000017188078)
        quatd xformOp:orient = (0.9999999998885035, 0.000014788493935823337, -8.547398613560179e-7, -0.0000018875445159677988)
        double3 xformOp:translate = (0.5827503800392151, 4.4629311446442443e-7, -0.029054935374524804)

        over "j3" (
            delete apiSchemas = ["PhysicsDriveAPI:angular"]
        )
        {
            float physics:lowerLimit = -inf
            float physics:upperLimit = inf
            float state:angular:physics:position = 0.00017760249
            float state:angular:physics:velocity = 0.007362808
        }
    }

    over "Link2"
    {
        vector3f physics:angularVelocity = (-0.0018786918, 0.005742697, 0.0042319587)
        vector3f physics:velocity = (0.000003142254, 0.0000018011831, -0.000010314832)
        quatd xformOp:orient = (0.7071160318828832, -0.7070975303646754, 0.0000025253248168144307, -7.073595043035794e-8)
        double3 xformOp:translate = (0.625350296497345, 2.8548157615659875e-7, -0.029054860868718835)

        over "j2" (
            delete apiSchemas = ["PhysicsDriveAPI:angular"]
        )
        {
            float physics:lowerLimit = -inf
            float physics:upperLimit = inf
            float state:angular:physics:position = 0.00036487504
            float state:angular:physics:velocity = -0.0016226303
        }
    }

    over "Link1"
    {
        vector3f physics:angularVelocity = (-0.0018787187, 0.005742917, -0.0031858801)
        vector3f physics:velocity = (0.0000031422512, 0.0000013208291, -0.000014584692)
        quatd xformOp:orient = (0.9999999998878188, 0.000014802249203847463, 0.0000016994670048497337, 0.000001538680247900273)
        double3 xformOp:translate = (0.6679503321647644, 1.290799929165587e-7, -0.029055009880330773)

        over "j1" (
            delete apiSchemas = ["PhysicsDriveAPI:angular"]
        )
        {
            float physics:lowerLimit = -inf
            float physics:upperLimit = inf
            float state:angular:physics:position = -0.0010835172
            float state:angular:physics:velocity = -0.0014594503
        }
    }

    over "head" (
        prepend apiSchemas = ["PhysicsArticulationRootAPI", "PhysxArticulationAPI"]
    )
    {
        vector3f physics:angularVelocity = (-0.0018786663, -0.012536105, -0.0031863542)
        vector3f physics:velocity = (0.000003142588, -0.0000010196067, -0.000010029788)
        quatd xformOp:orient = (0.7071160318801426, -0.7070975303646753, -0.0000030770897865281705, -8.887972171574482e-7)
        double3 xformOp:translate = (0.7105503678321838, 2.601647679512098e-7, -0.029055153304007264)
    }
}

